<?xml version="1.0"?>
<svg id="Layer_1" data-name="Layer 1" xmlns="http://www.w3.org/2000/svg" viewBox="0 0 150 150">
  <defs>
    
  </defs>
  <path fill="#FEDD00" d="M72.71,116.4c-1.24.67-2.59.8-3.96.77-1.29-.02-2.44-.39-3.46-1.25-1.97-1.68-3.08-4.35-2.73-6.97.4-2.99-.37-4.96-2.25-7.27-1.68-2.07-2.95-4.36-3.66-6.95-.98-3.57-1.25-7.2-.88-10.88.17-1.72.33-3.34.81-4.99l2.08-7.15,2.98-8.24c1.38-3.83,3.31-7.35,5.9-10.51,1.99-2.44,4.07-4.74,6.47-6.79,3.14-2.69,6.64-4.86,10.38-6.62,3.98-1.87,8.21-2.96,12.6-3.17l5.28.19c2.51.09,4.86-.17,7.21-1.01,1.86-.66,3.57-1.41,5.34-2.25s3.87-.6,5.26.97c1.44,1.63,2.01,3.93,1.63,6.12-.4,2.29.13,4.5,1.63,6.29,3.44,4.09,6.06,8.76,6.81,14.13.3,2.12.47,4.2.31,6.34l-.51,6.6c-.15,1.95-.6,3.77-1.13,5.65-1.45,5.16-3.82,10.5-7.21,14.66l-5.54,6.8-3.82,4.29c-3.93,4.41-11.26,8.49-17.06,9.95-2.73.69-5.44.94-8.25,1.06-2.15.1-4.21-.18-6.32-.56-1.53-.28-3.01-.4-4.56-.27-1.2.1-2.26.47-3.34,1.06Z"></path>
  <g>
    <path fill="#0E0E0C" d="M28.56,67.69v18.09c0,2.38-.16,4.06-.47,5.04s-.91,1.74-1.79,2.29-2.01.83-3.38.83c-.49,0-1.02-.04-1.59-.13s-1.18-.22-1.84-.4l.86-4.22c.23.05.45.08.66.11s.4.04.57.04c.5,0,.92-.11,1.24-.33s.54-.48.64-.78.16-1.22.16-2.74v-17.81h4.94ZM23.62,65.16v-4.57h4.94v4.57h-4.94Z"></path>
    <path fill="#0E0E0C" d="M33.36,67.69h4.55v2.55c1.63-1.98,3.57-2.97,5.82-2.97,1.2,0,2.23.25,3.11.74s1.6,1.24,2.16,2.23c.82-1,1.71-1.74,2.65-2.23s1.96-.74,3.04-.74c1.37,0,2.53.28,3.48.83s1.66,1.37,2.13,2.45c.34.8.51,2.09.51,3.87v11.94h-4.94v-10.67c0-1.85-.17-3.05-.51-3.59-.46-.7-1.16-1.05-2.11-1.05-.69,0-1.34.21-1.95.63s-1.05,1.04-1.32,1.85-.4,2.1-.4,3.86v8.96h-4.94v-10.23c0-1.82-.09-2.99-.26-3.52s-.45-.92-.82-1.18-.87-.39-1.5-.39c-.76,0-1.45.21-2.06.62s-1.05,1-1.31,1.78-.4,2.06-.4,3.85v9.07h-4.94v-18.67Z"></path>
    <path fill="#0E0E0C" d="M82.86,86.36h-4.59v-2.74c-.76,1.07-1.66,1.86-2.7,2.38s-2.08.78-3.14.78c-2.14,0-3.98-.86-5.51-2.59s-2.29-4.14-2.29-7.23.74-5.57,2.23-7.22,3.37-2.47,5.64-2.47c2.09,0,3.89.87,5.41,2.6v-9.28h4.94v25.77ZM69.68,76.62c0,1.99.28,3.43.83,4.32.8,1.29,1.91,1.93,3.34,1.93,1.14,0,2.1-.48,2.9-1.45s1.2-2.41,1.2-4.33c0-2.14-.39-3.69-1.16-4.63s-1.76-1.42-2.97-1.42-2.15.47-2.94,1.4-1.19,2.32-1.19,4.17Z"></path>
    <path fill="#0E0E0C" d="M87.36,67.69h4.55v2.55c1.63-1.98,3.57-2.97,5.82-2.97,1.2,0,2.23.25,3.11.74s1.6,1.24,2.16,2.23c.82-1,1.71-1.74,2.65-2.23s1.96-.74,3.04-.74c1.37,0,2.53.28,3.48.83s1.66,1.37,2.13,2.45c.34.8.51,2.09.51,3.87v11.94h-4.94v-10.67c0-1.85-.17-3.05-.51-3.59-.46-.7-1.16-1.05-2.11-1.05-.69,0-1.34.21-1.95.63s-1.05,1.04-1.32,1.85-.4,2.1-.4,3.86v8.96h-4.94v-10.23c0-1.82-.09-2.99-.26-3.52s-.45-.92-.82-1.18-.87-.39-1.5-.39c-.76,0-1.45.21-2.06.62s-1.05,1-1.31,1.78-.4,2.06-.4,3.85v9.07h-4.94v-18.67Z"></path>
  </g>
</svg>