<?xml version="1.0"?>
<svg id="Layer_1" data-name="Layer 1" xmlns="http://www.w3.org/2000/svg" viewBox="0 0 150 150">
  <defs>
    
  </defs>
  <path class="cls-1" d="M54.65,116.4c-1.24.67-2.59.8-3.96.77-1.29-.02-2.44-.39-3.46-1.25-1.97-1.68-3.08-4.35-2.73-6.97.4-2.99-.37-4.96-2.25-7.27-1.68-2.07-2.95-4.36-3.66-6.95-.98-3.57-1.25-7.2-.88-10.88.17-1.72.33-3.34.81-4.99l2.08-7.15,2.98-8.24c1.38-3.83,3.31-7.35,5.9-10.51,1.99-2.44,4.07-4.74,6.47-6.79,3.14-2.69,6.64-4.86,10.38-6.62,3.98-1.87,8.21-2.96,12.6-3.17l5.28.19c2.51.09,4.86-.17,7.21-1.01,1.86-.66,3.57-1.41,5.34-2.25s3.87-.6,5.26.97c1.44,1.63,2.01,3.93,1.63,6.12-.4,2.29.13,4.5,1.63,6.29,3.44,4.09,6.06,8.76,6.81,14.13.3,2.12.47,4.2.31,6.34l-.51,6.6c-.15,1.95-.6,3.77-1.13,5.65-1.45,5.16-3.82,10.5-7.21,14.66l-5.54,6.8-3.82,4.29c-3.93,4.41-11.26,8.49-17.06,9.95-2.73.69-5.44.94-8.25,1.06-2.15.1-4.21-.18-6.32-.56-1.53-.28-3.01-.4-4.56-.27-1.2.1-2.26.47-3.34,1.06Z"></path>
</svg>